HIERARCHY
ROOT RootJoint
{
    OFFSET   0.000000   0.000000   0.000000
    CHANNELS 6 Xposition Yposition Zposition Xrotation Yrotation Zrotation
    JOINT pelvis_lowerback
    {
        OFFSET   0.000000   0.093605   0.000000
        CHANNELS 3 Xrotation Yrotation Zrotation
        JOINT lowerback_torso
        {
            OFFSET   0.000000   0.100000   0.000000
            CHANNELS 3 Xrotation Yrotation Zrotation
            JOINT torso_head
            {
                OFFSET   0.000000   0.282350   0.000000
                CHANNELS 3 Xrotation Yrotation Zrotation
                End Site
                {
                    OFFSET   0.000000   0.192650   0.000000
                }
            }
            JOINT rTorso_Clavicle
            {
                OFFSET  -0.001000   0.157500   0.000000
                CHANNELS 3 Xrotation Yrotation Zrotation
                JOINT rShoulder
                {
                    OFFSET  -0.117647   0.000000   0.000000
                    CHANNELS 3 Xrotation Yrotation Zrotation
                    JOINT rElbow
                    {
                        OFFSET  -0.245000   0.000000   0.000000
                        CHANNELS 3 Xrotation Yrotation Zrotation
                        JOINT rWrist
                        {
                            OFFSET  -0.240000   0.000000   0.000000
                            CHANNELS 3 Xrotation Yrotation Zrotation
                            End Site
                            {
                                OFFSET  -0.116353  -0.002500   0.000000
                            }
                        }
                    }
                }
            }
            JOINT lTorso_Clavicle
            {
                OFFSET   0.001000   0.157500   0.000000
                CHANNELS 3 Xrotation Yrotation Zrotation
                JOINT lShoulder
                {
                    OFFSET   0.117647   0.000000   0.000000
                    CHANNELS 3 Xrotation Yrotation Zrotation
                    JOINT lElbow
                    {
                        OFFSET   0.245000   0.000000   0.000000
                        CHANNELS 3 Xrotation Yrotation Zrotation
                        JOINT lWrist
                        {
                            OFFSET   0.240000   0.000000   0.000000
                            CHANNELS 3 Xrotation Yrotation Zrotation
                            End Site
                            {
                                OFFSET   0.116353  -0.002500   0.000000
                            }
                        }
                    }
                }
            }
        }
    }
    JOINT rHip
    {
        OFFSET  -0.100000  -0.051395   0.000000
        CHANNELS 3 Xrotation Yrotation Zrotation
        JOINT rKnee
        {
            OFFSET   0.000000  -0.410000   0.000000
            CHANNELS 3 Xrotation Yrotation Zrotation
            JOINT rAnkle
            {
                OFFSET   0.000000  -0.390000   0.000000
                CHANNELS 3 Xrotation Yrotation Zrotation
                JOINT rToeJoint
                {
                    OFFSET   0.000000  -0.050000   0.130000
                    CHANNELS 3 Xrotation Yrotation Zrotation
                    End Site
                    {
                        OFFSET  -0.010000   0.002000   0.060000
                    }
                }
            }
        }
    }
    JOINT lHip
    {
        OFFSET   0.100000  -0.051395   0.000000
        CHANNELS 3 Xrotation Yrotation Zrotation
        JOINT lKnee
        {
            OFFSET   0.000000  -0.410000   0.000000
            CHANNELS 3 Xrotation Yrotation Zrotation
            JOINT lAnkle
            {
                OFFSET   0.000000  -0.390000   0.000000
                CHANNELS 3 Xrotation Yrotation Zrotation
                JOINT lToeJoint
                {
                    OFFSET   0.000000  -0.050000   0.130000
                    CHANNELS 3 Xrotation Yrotation Zrotation
                    End Site
                    {
                        OFFSET   0.010000   0.002000   0.060000
                    }
                }
            }
        }
    }
}
MOTION
Frames: 12
Frame Time:   0.008333
 -2.376719   0.925631   3.975860   0.000000   0.000000   0.000000   0.000000   0.000000   0.000000   0.000000   0.000000   0.000000   0.000000   0.000000   0.000000   0.000000   0.000000   0.000000   0.000000   0.000000   0.000000   0.000000   0.000000   0.000000   0.000000   0.000000   0.000000   0.000000   0.000000   0.000000   0.000000   0.000000   0.000000   0.000000   0.000000   0.000000   0.000000   0.000000   0.000000   0.000000   0.000000   0.000000   0.000000   0.000000   0.000000   0.000000   0.000000   0.000000   0.000000   0.000000   0.000000   0.000000   0.000000   0.000000   0.000000   0.000000   0.000000   0.000000   0.000000   0.000000   0.000000   0.000000   0.000000
 -2.376644   0.926234   3.975497  -0.033570   0.139951  -0.015593   0.033708   0.018442   0.055009   0.114725  -0.181598  -0.033755  -0.273832   0.000070   0.020637   0.270485  -0.216568   0.335178   1.010701   0.293516   2.043938   0.015436   0.737377  -0.009081   0.442197  -0.487866  -2.814251   0.342241   0.133182  -0.617646   1.388322  -0.170877  -1.829276   0.013774  -0.642628   0.010426   0.481960   0.334162   2.920034  -0.288034  -0.182814  -0.129242   0.998728   0.001252  -0.000387  -0.912291  -0.547379  -0.074477  -0.076755  -0.000146   0.000395  -0.376673  -0.146393   0.172164   1.106103  -0.001521  -0.000041  -0.959688   0.155483   0.059128   0.357177  -0.000673   0.000465
 -2.376598   0.927246   3.975166  -0.124423   0.291097  -0.025223   0.079080   0.031409   0.105353   0.260451  -0.372918  -0.077652  -0.535659  -0.000931   0.047265   0.535950  -0.337731   1.378056   1.990899   0.693557   4.655743   0.035951   1.466944  -0.015995   0.917222  -0.737764  -4.921685   0.678860   0.159171  -1.970443   2.746170  -0.461766  -4.259287   0.032364  -1.278666   0.018464   1.012452   0.473245   5.128963  -0.522493  -0.364625  -0.386035   2.053330   0.003417  -0.000691  -1.764255  -1.066197  -0.154919  -0.188170  -0.000452   0.000849  -0.701209  -0.282330   0.474857   2.258430  -0.004184   0.000260  -1.854806   0.303545   0.118124   0.652551  -0.001445   0.000808
 -2.376590   0.928248   3.974900  -0.219673   0.435239  -0.028264   0.113630   0.038809   0.142595   0.393824  -0.558597  -0.131061  -0.783695  -0.001957   0.075244   0.783295  -0.381211   2.852558   2.929784   1.186854   7.636203   0.056365   2.165936  -0.020735   1.380095  -0.846647  -6.207687   0.989312   0.102997  -3.757405   4.061757  -0.867724  -7.078176   0.051111  -1.890957   0.024165   1.531169   0.478116   6.483199  -0.729922  -0.534840  -0.745878   3.058518   0.005861  -0.001004  -2.559369  -1.550949  -0.238350  -0.294883  -0.000775   0.001156  -0.992727  -0.408051   0.883599   3.351236  -0.007233   0.000693  -2.689933   0.442940   0.176448   0.918434  -0.002231   0.001047
 -2.376614   0.928941   3.974715  -0.306230   0.564696  -0.026468   0.137253   0.042875   0.165872   0.507184  -0.735525  -0.193249  -1.019500  -0.002976   0.102640   1.011045  -0.371345   4.568865   3.825084   1.764105  10.860668   0.074231   2.830951  -0.023799   1.831012  -0.859036  -6.883467   1.270419  -0.007642  -5.780239   5.333627  -1.381785 -10.152185   0.067751  -2.476518   0.028069   2.037800   0.382395   7.201129  -0.921135  -0.693027  -1.186366   4.000383   0.008221  -0.001387  -3.302719  -2.003488  -0.323496  -0.398823  -0.001094   0.001364  -1.259810  -0.526008   1.377806   4.373211  -0.010218   0.001139  -3.470194   0.573848   0.233824   1.155568  -0.002927   0.001185
 -2.376663   0.929103   3.974624  -0.381251   0.675967  -0.021423   0.151270   0.044898   0.176053   0.601190  -0.902842  -0.263244  -1.242395  -0.004007   0.128655   1.218543  -0.327553   6.400485   4.674130   2.415063  14.244188   0.088496   3.460266  -0.025587   2.269395  -0.805825  -7.147888   1.521087  -0.151535  -7.909567   6.558643  -1.994659 -13.390152   0.081255  -3.033396   0.030603   2.531328   0.215228   7.489291  -1.099642  -0.839286  -1.688646   4.880075   0.010303  -0.001837  -3.997909  -2.425764  -0.409313  -0.499317  -0.001384   0.001497  -1.505017  -0.637979   1.938986   5.327267  -0.012890   0.001542  -4.199253   0.696537   0.289981   1.367496  -0.003490   0.001240
 -2.376762   0.928549   3.974633  -0.445060   0.769053  -0.011913   0.157188   0.045942   0.168744   0.678861  -1.059997  -0.351923  -1.452081  -0.005185   0.156310   1.407140  -0.264229   8.290082   5.460100   3.118965  17.684731   0.098778   4.053903  -0.026339   2.694164  -0.705436  -7.110550   1.743891  -0.313371 -10.121365   7.662113  -2.659011 -16.565154   0.091005  -3.562746   0.031763   3.012497  -0.016081   7.406047  -1.266601  -0.973936  -2.236076   5.701613   0.011991  -0.002314  -4.648168  -2.819700  -0.495002  -0.596054  -0.001632   0.001572  -1.729644  -0.745198   2.551594   6.218550  -0.015146   0.001887  -4.880402   0.811283   0.344629   1.557375  -0.003911   0.001236
 -2.376766   0.926620   3.974330  -0.394727   0.796621   0.018905   0.163395   0.042169   0.181008   0.685178  -1.163041  -0.485252  -1.824502  -0.152132   0.136851   1.602109  -0.038003   9.657620   6.116490   3.728377  20.940320   0.105112   4.689987  -0.027274   3.053339  -0.529116  -6.126985   1.952252  -0.510520 -11.597628   8.436612  -3.330740 -19.791621   0.097596  -4.137482   0.032166   3.403205  -0.349857   6.380532  -1.611904  -1.380513  -2.786094   6.438364   0.012569  -0.004852  -4.875964  -3.363777  -0.406087  -0.548014  -0.001122   0.000863  -1.992949  -0.729502   3.081062   6.711395  -0.014489   0.002131  -5.406567   0.946512   0.316172   1.731132  -0.003921   0.001332
 -2.376729   0.923505   3.973900  -0.324936   0.804525   0.050896   0.196175   0.038816   0.196727   0.680630  -1.252572  -0.614387  -2.185838  -0.295360   0.111202   1.760388   0.219302  10.770626   6.688807   4.351457  23.865025   0.105871   5.293620  -0.027500   3.401330  -0.303376  -5.216097   2.126179  -0.726181 -12.806591   9.118705  -4.007902 -22.690257   0.098771  -4.682405   0.031936   3.772702  -0.732728   5.410680  -1.985369  -1.774688  -3.304045   7.100282   0.012460  -0.006653  -5.083856  -3.876865  -0.326187  -0.468483  -0.000617   0.000049  -2.268090  -0.713346   3.556143   7.108784  -0.013321   0.002132  -5.900817   1.073099   0.290705   1.887445  -0.003779   0.001337
 -2.376670   0.919314   3.973437  -0.252984   0.803288   0.079785   0.244844   0.036901   0.214890   0.679436  -1.333511  -0.733463  -2.521038  -0.429315   0.085544   1.889323   0.481722  11.696776   7.188114   4.968644  26.510199   0.103008   5.862863  -0.027095   3.736785  -0.058250  -4.502920   2.272012  -0.945815 -13.821279   9.720799  -4.674853 -25.308640   0.096357  -5.194707   0.031121   4.125297  -1.120268   4.641373  -2.355317  -2.140176  -3.783081   7.703955   0.011934  -0.007759  -5.278026  -4.356194  -0.253685  -0.393854  -0.000254  -0.000532  -2.541057  -0.701010   3.985795   7.462215  -0.012048   0.002035  -6.363029   1.190876   0.267870   2.029589  -0.003549   0.001288
 -2.376605   0.918797   3.973340  -0.333799   0.808414   0.147297   0.379158   0.031994   0.201239   0.739381  -1.411137  -0.860420  -2.831274  -0.554442   0.059254   1.997123   0.748456  12.764735   7.619756   5.577993  29.015023   0.099344   6.390173  -0.026108   4.055276   0.140455  -3.992349   2.390951  -1.173849 -14.951288  10.245295  -5.336395 -27.770486   0.092948  -5.668456   0.029754   4.457083  -1.438528   4.086574  -2.752453  -2.593943  -3.969060   8.526989   0.009660  -0.009902  -5.120073  -4.881101  -0.005201  -0.237544  -0.000371  -0.001808  -2.845059  -0.545666   3.953629   8.168424  -0.009696   0.002924  -6.388246   1.398871   0.041167   2.239415  -0.002471   0.001748
 -2.376636   0.918539   3.973499  -0.361770   0.926974   0.175732   0.432446  -0.012162   0.212240   0.771994  -1.513720  -0.963738  -3.112637  -0.672528   0.033072   2.111409   0.967549  13.652009   8.007978   6.149618  31.350750   0.093862   6.884701  -0.024716   4.359052   0.361279  -3.400921   2.501227  -1.379246 -15.897372  10.710315  -5.975477 -30.062592   0.088038  -6.119757   0.027869   4.776767  -1.804653   3.472324  -3.005657  -2.818622  -4.053402   9.143588   0.007720  -0.008725  -5.451635  -5.169105   0.113013  -0.205401  -0.000322  -0.001564  -3.091572  -0.515279   3.943766   8.707031  -0.007741   0.003215  -6.662922   1.502152  -0.000739   2.406780  -0.001926   0.001801
